<?xml version="1.0" standalone="no"?>
<!DOCTYPE svg PUBLIC "-//W3C//DTD SVG 20010904//EN"
 "http://www.w3.org/TR/2001/REC-SVG-20010904/DTD/svg10.dtd">
<svg version="1.0" xmlns="http://www.w3.org/2000/svg"
 width="128.000000pt" height="128.000000pt" viewBox="0 0 128.000000 128.000000"
 preserveAspectRatio="xMidYMid meet">
<metadata>
Created by potrace 1.14, written by Peter Selinger 2001-2017
</metadata>
<g transform="translate(0.000000,128.000000) scale(0.100000,-0.100000)"
fill="#000000" stroke="none">
<path d="M551 969 c-61 -27 -88 -60 -162 -197 -35 -64 -68 -124 -74 -134 -5
-9 -23 -40 -39 -69 -45 -84 -50 -92 -63 -107 -7 -7 -13 -17 -13 -22 0 -22 -87
-92 -141 -111 -32 -12 -59 -26 -59 -31 0 -5 82 -8 189 -8 258 2 280 11 361
148 23 39 47 72 54 73 6 0 105 1 221 3 231 2 245 5 313 70 88 82 95 233 15
326 -65 76 -82 80 -335 80 -202 0 -227 -2 -267 -21z"/>
</g>
</svg>
